<!DOCTYPE svg PUBLIC "-//W3C//DTD SVG 1.1//EN" "http://www.w3.org/Graphics/SVG/1.1/DTD/svg11.dtd">
<!-- Uploaded to: SVG Repo, www.svgrepo.com, Transformed by: SVG Repo Mixer Tools -->
<svg height="800px" width="800px" version="1.1" id="Layer_1" xmlns="http://www.w3.org/2000/svg" xmlns:xlink="http://www.w3.org/1999/xlink" viewBox="0 0 503.322 503.322" xml:space="preserve" fill="#272727" stroke="#272727">
<g id="SVGRepo_bgCarrier" stroke-width="0"/>
<g id="SVGRepo_tracerCarrier" stroke-linecap="round" stroke-linejoin="round"/>
<g id="SVGRepo_iconCarrier"> <path style="fill:#546080;" d="M295.051,34.712V17.356C295.051,7.81,287.241,0,277.695,0h-52.068 c-9.546,0-17.356,7.81-17.356,17.356v17.356h-34.712c-5.207,0-8.678,3.471-8.678,8.678v60.746c0,5.207,3.471,8.678,8.678,8.678 h156.203c5.207,0,8.678-3.471,8.678-8.678V43.39c0-5.207-3.471-8.678-8.678-8.678H295.051z"/> <path style="fill:#EFEADD;" d="M338.441,60.746v43.39c0,5.207-3.471,8.678-8.678,8.678H173.559c-5.207,0-8.678-4.339-8.678-8.678 v-43.39h-52.068c-19.092,0-34.712,15.62-34.712,34.712V468.61c0,19.092,15.62,34.712,34.712,34.712h277.695 c19.092,0,34.712-15.62,34.712-34.712V95.458c0-19.092-15.62-34.712-34.712-34.712H338.441z"/> <g> <path style="fill:#26B999;" d="M190.915,364.475c-1.736,0-4.339-0.868-6.075-1.736l-69.424-60.746 c-1.736-1.736-2.603-4.339-2.603-6.942c0-2.603,0.868-5.207,2.603-6.942l69.424-60.746c3.471-3.471,8.678-2.603,12.149,0.868 c3.471,3.471,2.603,8.678-0.868,12.149l-61.614,54.671l61.614,53.803c3.471,3.471,4.339,8.678,0.868,12.149 C196.122,363.607,193.519,364.475,190.915,364.475"/> <path style="fill:#26B999;" d="M312.407,364.475c-2.603,0-5.207-0.868-6.942-2.603c-3.471-3.471-2.603-8.678,0.868-12.149 l61.614-53.803l-61.614-53.803c-3.471-3.471-4.339-8.678-0.868-12.149c3.471-3.471,8.678-4.339,12.149-0.868l69.424,60.746 c1.736,1.736,2.603,4.339,2.603,6.942c0,2.603-0.868,5.207-2.603,6.942l-69.424,60.746 C316.746,363.607,314.142,364.475,312.407,364.475"/> <path style="fill:#26B999;" d="M225.627,364.475c-0.868,0-2.603,0-3.471-0.868c-4.339-1.736-6.075-6.942-4.339-11.281 l52.068-121.492c1.736-4.339,6.942-6.075,11.281-4.339s6.075,6.942,4.339,11.281l-52.068,121.492 C232.569,362.739,229.098,364.475,225.627,364.475"/> </g> </g>
</svg>