<!DOCTYPE svg PUBLIC "-//W3C//DTD SVG 1.1//EN" "http://www.w3.org/Graphics/SVG/1.1/DTD/svg11.dtd">
<!-- Uploaded to: SVG Repo, www.svgrepo.com, Transformed by: SVG Repo Mixer Tools -->
<svg fill="#b2b2b2" width="800px" height="800px" viewBox="0 0 52 52" data-name="Layer 1" id="Layer_1" xmlns="http://www.w3.org/2000/svg" stroke="#b2b2b2">
<g id="SVGRepo_bgCarrier" stroke-width="0"/>
<g id="SVGRepo_tracerCarrier" stroke-linecap="round" stroke-linejoin="round"/>
<g id="SVGRepo_iconCarrier">
<path d="M50,15.52H2a2,2,0,0,1-2-2V2A2,2,0,0,1,2,0H50a2,2,0,0,1,2,2V13.52A2,2,0,0,1,50,15.52Zm-46-4H48V4H4Z"/>
<path d="M50,33.76H2a2,2,0,0,1-2-2V20.24a2,2,0,0,1,2-2H50a2,2,0,0,1,2,2V31.76A2,2,0,0,1,50,33.76Zm-46-4H48V22.24H4Z"/>
<path d="M50,52H2a2,2,0,0,1-2-2V38.48a2,2,0,0,1,2-2H50a2,2,0,0,1,2,2V50A2,2,0,0,1,50,52ZM4,48H48V40.48H4Z"/>
</g>
</svg>